# xmcd
#
# Track frame offsets:
#	150
#	16259
#	28937
#	42008
#	52668
#	69479
#	81068
#	93550
#	112526
#	126993
#	141611
#	154685
#	165996
#	175464
#	187046
#
# Disc length: 2660
#
# Revision: 1
# Processed by: cddbd v1.5.1PL0 Copyright (c) Steve Scherf et al.
# Submitted via: audiograbber 1.83.01
# Normalized: r0:DSETVAR1
#
DISCID=be0a620f
DTITLE=Various Artist - CBE103
DYEAR=1900
DGENRE=Karaoke
TTITLE0=Johnny Cash - A Boy Named Sue
TTITLE1=Tammy Wynette - Stand By Your Man
TTITLE2=Merle Haggard - Okie From Muskogee
TTITLE3=Anne Murray - Snowbird
TTITLE4=Ray Stevens - Everything Is Beautiful
TTITLE5=Linda Ronstadt - Silver Threads and Golden Needles
TTITLE6=Conway Twitty - Hello Darlin'
TTITLE7=Ray Price - For The Good Times
TTITLE8=Loretta Lynn - Coal Miner's Daughter
TTITLE9=Lynn Anderson - Rose Garden
TTITLE10=Sammi Smith - Help Me Make It Through The Night
TTITLE11=Jerry Reed - When You're Hot, You're Hot
TTITLE12=Charley Pride - Kiss An Angel Good Morning
TTITLE13=Donna Fargo - Happiest Girl In The Whole USA, The
TTITLE14=Tanya Tucker - Delta Dawn
EXTD=
EXTT0=
EXTT1=
EXTT2=
EXTT3=
EXTT4=
EXTT5=
EXTT6=
EXTT7=
EXTT8=
EXTT9=
EXTT10=
EXTT11=
EXTT12=
EXTT13=
EXTT14=
PLAYORDER=
